<?xml version="1.0" standalone="no"?>
<!DOCTYPE svg PUBLIC "-//W3C//DTD SVG 20010904//EN"
 "http://www.w3.org/TR/2001/REC-SVG-20010904/DTD/svg10.dtd">
<svg version="1.0" xmlns="http://www.w3.org/2000/svg"
 width="700.000000pt" height="700.000000pt" viewBox="0 0 700.000000 700.000000"
 preserveAspectRatio="xMidYMid meet">
<metadata>
Created by potrace 1.11, written by Peter Selinger 2001-2013
</metadata>
<g transform="translate(0.000000,700.000000) scale(0.100000,-0.100000)"
fill="#000000" stroke="none">
<path d="M3504 6121 c-2 -2 -4 -694 -4 -1538 l0 -1533 -67 34 c-161 80 -330
120 -513 120 -132 0 -189 -6 -283 -30 -296 -76 -540 -251 -702 -503 -45 -70
-111 -204 -120 -246 -2 -5 -12 -41 -24 -80 -57 -194 -52 -445 15 -656 76 -243
251 -478 454 -610 211 -138 413 -201 645 -202 423 -2 796 209 1015 573 78 129
141 313 156 456 4 33 7 732 8 1554 l1 1495 550 2 c303 1 565 2 583 3 l32 0 0
583 0 583 -871 0 c-478 0 -872 -3 -875 -5z"/>
</g>
</svg>
